HIERARCHY
ROOT joint_Root
{
	OFFSET 0.0 0.0 0.0
	CHANNELS 6 Xposition Yposition Zposition Zrotation Xrotation Yrotation 
	JOINT Hips
	{
		OFFSET 4.5925 91.4895 -427.239
		CHANNELS 6 Xposition Yposition Zposition Zrotation Xrotation Yrotation 
		JOINT Spine
		{
			OFFSET 15.7357 0.0 0.0
			CHANNELS 6 Xposition Yposition Zposition Zrotation Xrotation Yrotation 
			JOINT Chest
			{
				OFFSET 8.98455 -0.406207 0.0
				CHANNELS 6 Xposition Yposition Zposition Zrotation Xrotation Yrotation 
				JOINT Neck
				{
					OFFSET 16.3773 0.0 0.0
					CHANNELS 6 Xposition Yposition Zposition Zrotation Xrotation Yrotation 
					JOINT Head
					{
						OFFSET 6.45672 0.0 0.0
						CHANNELS 6 Xposition Yposition Zposition Zrotation Xrotation Yrotation 
						End Site
						{
							OFFSET 0.0 0.0 0.0
						}
					}
				}
				JOINT Shoulder_L
				{
					OFFSET 12.9942 -0.242716 4.98039
					CHANNELS 6 Xposition Yposition Zposition Zrotation Xrotation Yrotation 
					JOINT UpperArm_L
					{
						OFFSET 5.34809 0.0 0.0
						CHANNELS 6 Xposition Yposition Zposition Zrotation Xrotation Yrotation 
						JOINT LowerArm_L
						{
							OFFSET 24.3286 1.87007e-05 0.0
							CHANNELS 6 Xposition Yposition Zposition Zrotation Xrotation Yrotation 
							JOINT Hand_L
							{
								OFFSET 22.2916 0.0 0.0
								CHANNELS 6 Xposition Yposition Zposition Zrotation Xrotation Yrotation 
								End Site
								{
									OFFSET 0.0 0.0 0.0
								}
							}
						}
					}
				}
				JOINT Shoulder_R
				{
					OFFSET 12.9945 -0.242716 -4.98039
					CHANNELS 6 Xposition Yposition Zposition Zrotation Xrotation Yrotation 
					JOINT UpperArm_R
					{
						OFFSET -5.34813 0.0 0.0
						CHANNELS 6 Xposition Yposition Zposition Zrotation Xrotation Yrotation 
						JOINT LowerArm_R
						{
							OFFSET -24.3289 0.000322201 0.0
							CHANNELS 6 Xposition Yposition Zposition Zrotation Xrotation Yrotation 
							JOINT Hand_R
							{
								OFFSET -22.2915 -0.000108084 0.0
								CHANNELS 6 Xposition Yposition Zposition Zrotation Xrotation Yrotation 
								End Site
								{
									OFFSET 0.0 0.0 0.0
								}
							}
						}
					}
				}
			}
		}
		JOINT UpperLeg_L
		{
			OFFSET -2.19248 -6.46944 0.0
			CHANNELS 6 Xposition Yposition Zposition Zrotation Xrotation Yrotation 
			JOINT LowerLeg_L
			{
				OFFSET 39.0811 0.0 -1.23785e-05
				CHANNELS 6 Xposition Yposition Zposition Zrotation Xrotation Yrotation 
				JOINT Foot_L
				{
					OFFSET 40.9854 0.0 -1.26872e-05
					CHANNELS 6 Xposition Yposition Zposition Zrotation Xrotation Yrotation 
					JOINT Toes_L
					{
						OFFSET 11.7543 0.0 0.0
						CHANNELS 6 Xposition Yposition Zposition Zrotation Xrotation Yrotation 
						End Site
						{
							OFFSET 0.0 0.0 0.0
						}
					}
				}
			}
		}
		JOINT UpperLeg_R
		{
			OFFSET -2.19251 6.46944 0.0
			CHANNELS 6 Xposition Yposition Zposition Zrotation Xrotation Yrotation 
			JOINT LowerLeg_R
			{
				OFFSET -39.0811 -0.00228153 -0.0401928
				CHANNELS 6 Xposition Yposition Zposition Zrotation Xrotation Yrotation 
				JOINT Foot_R
				{
					OFFSET -40.9854 0.0 0.0
					CHANNELS 6 Xposition Yposition Zposition Zrotation Xrotation Yrotation 
					JOINT Toes_R
					{
						OFFSET -11.7543 0.0 0.0
						CHANNELS 6 Xposition Yposition Zposition Zrotation Xrotation Yrotation 
						End Site
						{
							OFFSET 0.0 0.0 0.0
						}
					}
				}
			}
		}
	}
}
MOTION
Frames:	6
Frame Time:	0.0333333
0.000000 0.000000 0.000000 0.000000 0.000000 -0.000000 0.182540 91.490500 2.785820 89.513800 -0.966627 0.755292 15.735700 0.000005 -0.000001 86.306500 88.329400 -86.586500 8.984550 -0.406207 -0.000000 -4.432260 -0.185263 -0.567574 16.377300 -0.000001 -0.000001 2.469690 -3.146240 2.503200 6.456720 -0.000001 -0.000000 -5.121650 -2.336360 1.574500 12.994200 -0.242716 4.980390 -84.606100 -11.396200 -64.459100 5.348090 -0.000007 -0.000001 -45.673600 -56.398600 -91.690000 24.328600 0.000019 0.000005 15.636800 11.721600 -54.028400 22.291600 -0.000001 0.000005 24.865400 5.410080 -3.267620 12.994500 -0.242716 -4.980390 93.718600 -10.351600 -70.114800 -5.348130 -0.000001 -0.000004 -44.260300 -55.591700 -91.655900 -24.328900 0.000322 -0.000009 1.737380 1.478670 -49.637400 -22.291500 -0.000108 -0.000004 24.110800 5.614640 -12.259200 -2.192480 -6.469440 -0.000000 -176.996000 -10.450600 -4.865500 39.081100 -0.000007 -0.000012 -0.160632 0.340298 25.269000 40.985400 -0.000006 -0.000013 -0.098823 3.896370 -69.707600 11.754300 -0.000000 0.000003 -0.000240 -0.002157 -16.658500 -2.192510 6.469440 -0.000001 176.159000 22.184900 177.377000 -39.081100 -0.002282 -0.040193 0.011659 -0.018284 24.536100 -40.985400 0.000008 0.000006 6.088190 12.857700 -71.132900 -11.754300 -0.000006 -0.000006 -0.252484 -0.313460 -17.069100
0.000000 0.000000 0.000000 0.000000 0.000000 -0.000000 0.207006 91.467200 2.786420 89.567900 -1.268800 0.978249 15.735700 0.000005 -0.000001 86.202000 88.187900 -86.459100 8.984550 -0.406207 -0.000000 -4.150240 -0.213165 -0.522236 16.377300 -0.000001 -0.000001 2.388240 -3.168770 2.370930 6.456720 -0.000001 -0.000000 -4.680440 -2.161770 1.372910 12.994200 -0.242716 4.980390 -85.300700 -10.271000 -65.249200 5.348090 -0.000007 -0.000001 -41.665300 -55.395700 -85.632100 24.328600 0.000019 0.000005 13.198600 8.610660 -57.448700 22.291600 -0.000001 0.000005 24.099900 5.399120 -2.908420 12.994500 -0.242716 -4.980390 93.288500 -9.439040 -70.691500 -5.348130 -0.000001 -0.000004 -42.102800 -54.109900 -87.625700 -24.328900 0.000322 -0.000009 -0.033218 -0.022577 -54.197000 -22.291500 -0.000108 -0.000004 24.136500 5.603580 -11.560100 -2.192480 -6.469440 -0.000000 -176.971000 -11.065500 -4.627070 39.081100 -0.000007 -0.000012 -0.159536 0.336718 25.351600 40.985400 -0.000006 -0.000013 -0.001097 4.229890 -69.781300 11.754300 -0.000000 0.000003 -0.000234 -0.002114 -16.656900 -2.192510 6.469440 -0.000001 175.968000 22.124900 177.569000 -39.081100 -0.002282 -0.040193 0.011572 -0.018026 24.616600 -40.985400 0.000008 0.000006 6.174710 13.067900 -71.319000 -11.754300 -0.000006 -0.000006 -0.226549 -0.280905 -16.968400
0.000000 0.000000 0.000000 0.000000 0.000000 -0.000000 0.230185 91.419100 2.811840 89.625100 -1.552280 1.365330 15.735700 0.000005 -0.000001 86.106600 87.968700 -86.352600 8.984550 -0.406207 -0.000000 -3.713280 -0.251062 -0.500217 16.377300 -0.000001 -0.000001 2.209490 -3.155350 2.287830 6.456720 -0.000001 -0.000000 -4.273270 -1.907880 1.263810 12.994200 -0.242716 4.980390 -86.071400 -8.893010 -66.047600 5.348090 -0.000007 -0.000001 -38.102300 -53.138600 -78.838100 24.328600 0.000019 0.000005 10.161900 5.399750 -62.304500 22.291600 -0.000001 0.000005 23.185300 5.386640 -2.507810 12.994500 -0.242716 -4.980390 92.774300 -8.250300 -71.340800 -5.348130 -0.000001 -0.000004 -39.698700 -51.717800 -82.210400 -24.328900 0.000322 -0.000009 -1.768290 -1.001530 -60.452900 -22.291500 -0.000108 -0.000004 24.785000 5.595350 -11.069100 -2.192480 -6.469440 -0.000000 -176.890000 -11.697400 -4.251690 39.081100 -0.000007 -0.000012 -0.161391 0.337489 25.557800 40.985400 -0.000006 -0.000013 0.086762 4.559180 -69.943200 11.754300 -0.000000 0.000003 -0.000250 -0.002237 -16.661400 -2.192510 6.469440 -0.000001 175.694000 22.076600 177.905000 -39.081100 -0.002282 -0.040193 0.011641 -0.018010 24.818300 -40.985400 0.000008 0.000006 6.290080 13.299900 -71.610300 -11.754300 -0.000006 -0.000006 -0.137611 -0.172632 -16.904100
0.000000 0.000000 0.000000 0.000000 0.000000 -0.000000 0.246993 91.363600 2.824620 89.677300 -1.805950 1.841510 15.735700 0.000005 -0.000001 86.476800 87.733000 -86.716600 8.984550 -0.406207 -0.000000 -3.241040 -0.255485 -0.486830 16.377300 -0.000001 -0.000001 2.063210 -3.153440 2.368860 6.456720 -0.000001 -0.000000 -4.022960 -1.724110 1.173920 12.994200 -0.242716 4.980390 -86.792100 -7.546570 -66.889100 5.348090 -0.000007 -0.000001 -35.635900 -49.308900 -71.470100 24.328600 0.000019 0.000005 8.599680 3.399890 -68.588300 22.291600 -0.000001 0.000005 22.518100 5.379730 -2.289830 12.994500 -0.242716 -4.980390 92.135000 -6.700980 -72.282200 -5.348130 -0.000001 -0.000004 -36.916900 -48.576700 -75.351600 -24.328900 0.000322 -0.000009 -2.650050 -1.079710 -67.832800 -22.291500 -0.000108 -0.000004 25.526600 5.590930 -10.814600 -2.192480 -6.469440 -0.000000 -176.790000 -12.233000 -3.836560 39.081100 -0.000007 -0.000012 -0.161018 0.332649 25.829400 40.985400 -0.000006 -0.000013 0.179987 4.869710 -70.123500 11.754300 -0.000000 0.000003 -0.000253 -0.002257 -16.662100 -2.192510 6.469440 -0.000001 175.398000 22.013300 178.312000 -39.081100 -0.002282 -0.040193 0.011541 -0.017594 25.065500 -40.985400 0.000008 0.000006 6.413370 13.478800 -71.920700 -11.754300 -0.000006 -0.000006 -0.048766 -0.064596 -16.841900
0.000000 0.000000 0.000000 0.000000 0.000000 -0.000000 0.252287 91.305600 2.813650 89.725200 -1.973790 2.266180 15.735700 0.000005 -0.000001 86.032800 87.507800 -86.289000 8.984550 -0.406207 -0.000000 -2.794180 -0.321121 -0.520260 16.377300 -0.000001 -0.000001 1.706670 -3.196930 2.503900 6.456720 -0.000001 -0.000000 -3.589870 -1.454300 1.243680 12.994200 -0.242716 4.980390 -87.543600 -6.001000 -67.690400 5.348090 -0.000007 -0.000001 -33.322900 -44.036600 -63.451200 24.328600 0.000019 0.000005 9.182810 2.491120 -74.949700 22.291600 -0.000001 0.000005 22.737600 5.371800 -2.042460 12.994500 -0.242716 -4.980390 91.338800 -4.434190 -73.181600 -5.348130 -0.000001 -0.000004 -34.090000 -44.298900 -68.036400 -24.328900 0.000322 -0.000009 -3.118210 -0.819165 -75.282600 -22.291500 -0.000108 -0.000004 26.160300 5.585190 -10.494500 -2.192480 -6.469440 -0.000000 -176.714000 -12.535000 -3.544480 39.081100 -0.000007 -0.000012 -0.163511 0.332985 26.153500 40.985400 -0.000006 -0.000013 0.231122 5.012020 -70.292900 11.754300 -0.000000 0.000003 -0.000269 -0.002377 -16.666400 -2.192510 6.469440 -0.000001 175.147000 21.980200 178.641000 -39.081100 -0.002282 -0.040193 0.011002 -0.016248 25.330200 -40.985400 0.000008 0.000006 6.446670 13.610600 -72.199100 -11.754300 -0.000006 -0.000006 -0.015668 -0.022553 -16.736400
0.000000 0.000000 0.000000 0.000000 0.000000 -0.000000 0.228114 91.260100 2.776630 89.760700 -2.029830 2.642220 15.735700 0.000005 -0.000001 85.192200 87.336900 -85.434700 8.984550 -0.406207 -0.000000 -2.459460 -0.424626 -0.494198 16.377300 -0.000001 -0.000001 1.641210 -3.032170 2.349410 6.456720 -0.000001 -0.000000 -3.397090 -1.392340 1.443000 12.994200 -0.242716 4.980390 -88.431300 -3.998960 -68.560800 5.348090 -0.000007 -0.000001 -30.783500 -37.222300 -55.157300 24.328600 0.000019 0.000005 9.472110 1.738490 -79.694800 22.291600 -0.000001 0.000005 22.423900 5.369330 -1.965970 12.994500 -0.242716 -4.980390 90.584200 -2.017760 -73.850400 -5.348130 -0.000001 -0.000004 -31.772200 -38.467700 -60.472400 -24.328900 0.000322 -0.000009 -4.447720 -0.612208 -82.169300 -22.291500 -0.000108 -0.000004 25.919700 5.575610 -9.977980 -2.192480 -6.469440 -0.000000 -176.589000 -12.859000 -3.277400 39.081100 -0.000007 -0.000012 -0.168056 0.338395 26.410400 40.985400 -0.000006 -0.000013 0.287991 5.295910 -70.415100 11.754300 -0.000000 0.000003 -0.000279 -0.002451 -16.669100 -2.192510 6.469440 -0.000001 174.927000 22.151300 178.963000 -39.081100 -0.002282 -0.040193 0.010664 -0.015396 25.528100 -40.985400 0.000008 0.000006 6.604440 13.837100 -72.477400 -11.754300 -0.000006 -0.000006 -0.000177 -0.002931 -16.692900
